<mxfile host="app.diagrams.net" modified="2024-05-22T01:14:57.150Z" agent="Mozilla/5.0 (Windows NT 10.0; Win64; x64) AppleWebKit/537.36 (KHTML, like Gecko) Chrome/124.0.0.0 Safari/537.36 Edg/124.0.0.0" etag="yDAhMe8lW745gqklcz7R" version="24.4.3" type="onedrive">
  <diagram name="Page-1" id="Cf6r8-OuH3UWGjxWWSP6">
    <mxGraphModel grid="0" page="0" gridSize="10" guides="1" tooltips="1" connect="1" arrows="1" fold="1" pageScale="1" pageWidth="850" pageHeight="1100" math="0" shadow="0">
      <root>
        <mxCell id="0" />
        <mxCell id="1" parent="0" />
        <mxCell id="nG1wJSaAUfL6e8372q9L-1" value="Start" style="whiteSpace=wrap;strokeWidth=2;" vertex="1" parent="1">
          <mxGeometry x="664" y="20" width="51" height="34" as="geometry" />
        </mxCell>
        <mxCell id="nG1wJSaAUfL6e8372q9L-2" value="Configure-MachineGroups Function" style="whiteSpace=wrap;strokeWidth=2;" vertex="1" parent="1">
          <mxGeometry x="557" y="104" width="265" height="34" as="geometry" />
        </mxCell>
        <mxCell id="nG1wJSaAUfL6e8372q9L-3" value="Process-Servers Function" style="whiteSpace=wrap;strokeWidth=2;" vertex="1" parent="1">
          <mxGeometry x="169" y="188" width="192" height="34" as="geometry" />
        </mxCell>
        <mxCell id="nG1wJSaAUfL6e8372q9L-4" value="Log-ResolutionError Function" style="whiteSpace=wrap;strokeWidth=2;" vertex="1" parent="1">
          <mxGeometry x="286" y="272" width="223" height="34" as="geometry" />
        </mxCell>
        <mxCell id="nG1wJSaAUfL6e8372q9L-5" value="Get-CredentialID Function" style="whiteSpace=wrap;strokeWidth=2;" vertex="1" parent="1">
          <mxGeometry x="33" y="272" width="203" height="34" as="geometry" />
        </mxCell>
        <mxCell id="nG1wJSaAUfL6e8372q9L-6" value="Get-CredIDandName Function" style="whiteSpace=wrap;strokeWidth=2;" vertex="1" parent="1">
          <mxGeometry x="20" y="356" width="228" height="34" as="geometry" />
        </mxCell>
        <mxCell id="nG1wJSaAUfL6e8372q9L-7" value="Post-MachineGroup Function" style="whiteSpace=wrap;strokeWidth=2;" vertex="1" parent="1">
          <mxGeometry x="580" y="188" width="219" height="34" as="geometry" />
        </mxCell>
        <mxCell id="nG1wJSaAUfL6e8372q9L-8" value="Get-CredentialFromVault Function" style="whiteSpace=wrap;strokeWidth=2;" vertex="1" parent="1">
          <mxGeometry x="558" y="272" width="262" height="34" as="geometry" />
        </mxCell>
        <mxCell id="nG1wJSaAUfL6e8372q9L-9" value="Send-ErrorReportEmail Function" style="whiteSpace=wrap;strokeWidth=2;" vertex="1" parent="1">
          <mxGeometry x="870" y="272" width="245" height="34" as="geometry" />
        </mxCell>
        <mxCell id="nG1wJSaAUfL6e8372q9L-10" value="End" style="whiteSpace=wrap;strokeWidth=2;" vertex="1" parent="1">
          <mxGeometry x="674" y="356" width="41" height="34" as="geometry" />
        </mxCell>
        <mxCell id="nG1wJSaAUfL6e8372q9L-11" value="" style="curved=1;startArrow=none;endArrow=block;exitX=0.4934895833333333;exitY=1;entryX=0.49874705188679247;entryY=0;rounded=0;fontSize=12;startSize=8;endSize=8;" edge="1" parent="1" source="nG1wJSaAUfL6e8372q9L-1" target="nG1wJSaAUfL6e8372q9L-2">
          <mxGeometry relative="1" as="geometry">
            <Array as="points" />
          </mxGeometry>
        </mxCell>
        <mxCell id="nG1wJSaAUfL6e8372q9L-12" value="" style="curved=1;startArrow=none;endArrow=block;exitX=-0.0018130896226415095;exitY=0.8868289452057693;entryX=0.5029703776041666;entryY=0;rounded=0;fontSize=12;startSize=8;endSize=8;" edge="1" parent="1" source="nG1wJSaAUfL6e8372q9L-2" target="nG1wJSaAUfL6e8372q9L-3">
          <mxGeometry relative="1" as="geometry">
            <Array as="points">
              <mxPoint x="266" y="163" />
            </Array>
          </mxGeometry>
        </mxCell>
        <mxCell id="nG1wJSaAUfL6e8372q9L-13" value="" style="curved=1;startArrow=none;endArrow=block;exitX=0.780058361235119;exitY=1;entryX=0.4977928811659193;entryY=0;rounded=0;fontSize=12;startSize=8;endSize=8;" edge="1" parent="1" source="nG1wJSaAUfL6e8372q9L-3" target="nG1wJSaAUfL6e8372q9L-4">
          <mxGeometry relative="1" as="geometry">
            <Array as="points">
              <mxPoint x="397" y="247" />
            </Array>
          </mxGeometry>
        </mxCell>
        <mxCell id="nG1wJSaAUfL6e8372q9L-14" value="" style="curved=1;startArrow=none;endArrow=block;exitX=0.22588239397321427;exitY=1;entryX=0.4981911945812808;entryY=0;rounded=0;fontSize=12;startSize=8;endSize=8;" edge="1" parent="1" source="nG1wJSaAUfL6e8372q9L-3" target="nG1wJSaAUfL6e8372q9L-5">
          <mxGeometry relative="1" as="geometry">
            <Array as="points">
              <mxPoint x="134" y="247" />
            </Array>
          </mxGeometry>
        </mxCell>
        <mxCell id="nG1wJSaAUfL6e8372q9L-15" value="" style="curved=1;startArrow=none;endArrow=block;exitX=0.4981911945812808;exitY=1;entryX=0.5005825109649122;entryY=0;rounded=0;fontSize=12;startSize=8;endSize=8;" edge="1" parent="1" source="nG1wJSaAUfL6e8372q9L-5" target="nG1wJSaAUfL6e8372q9L-6">
          <mxGeometry relative="1" as="geometry">
            <Array as="points" />
          </mxGeometry>
        </mxCell>
        <mxCell id="nG1wJSaAUfL6e8372q9L-16" value="" style="curved=1;startArrow=none;endArrow=block;exitX=0.49874705188679247;exitY=1;entryX=0.4984838755707763;entryY=0;rounded=0;fontSize=12;startSize=8;endSize=8;" edge="1" parent="1" source="nG1wJSaAUfL6e8372q9L-2" target="nG1wJSaAUfL6e8372q9L-7">
          <mxGeometry relative="1" as="geometry">
            <Array as="points" />
          </mxGeometry>
        </mxCell>
        <mxCell id="nG1wJSaAUfL6e8372q9L-17" value="" style="curved=1;startArrow=none;endArrow=block;exitX=0.4984838755707763;exitY=1;entryX=0.5006411020992366;entryY=0;rounded=0;fontSize=12;startSize=8;endSize=8;" edge="1" parent="1" source="nG1wJSaAUfL6e8372q9L-7" target="nG1wJSaAUfL6e8372q9L-8">
          <mxGeometry relative="1" as="geometry">
            <Array as="points" />
          </mxGeometry>
        </mxCell>
        <mxCell id="nG1wJSaAUfL6e8372q9L-18" value="" style="curved=1;startArrow=none;endArrow=block;exitX=0.9619500365004492;exitY=1;entryX=0.49971301020408165;entryY=0;rounded=0;fontSize=12;startSize=8;endSize=8;" edge="1" parent="1" source="nG1wJSaAUfL6e8372q9L-2" target="nG1wJSaAUfL6e8372q9L-9">
          <mxGeometry relative="1" as="geometry">
            <Array as="points">
              <mxPoint x="992" y="163" />
            </Array>
          </mxGeometry>
        </mxCell>
        <mxCell id="nG1wJSaAUfL6e8372q9L-19" value="" style="curved=1;startArrow=none;endArrow=block;exitX=0.49971301020408165;exitY=1;entryX=1.0091463414634145;entryY=0.41429087445721663;rounded=0;fontSize=12;startSize=8;endSize=8;" edge="1" parent="1" source="nG1wJSaAUfL6e8372q9L-9" target="nG1wJSaAUfL6e8372q9L-10">
          <mxGeometry relative="1" as="geometry">
            <Array as="points">
              <mxPoint x="992" y="331" />
            </Array>
          </mxGeometry>
        </mxCell>
        <mxCell id="nG1wJSaAUfL6e8372q9L-20" value="" style="curved=1;startArrow=none;endArrow=block;exitX=0.4977928811659193;exitY=1;entryX=0.001524390243902439;entryY=0.41429087445721663;rounded=0;fontSize=12;startSize=8;endSize=8;" edge="1" parent="1" source="nG1wJSaAUfL6e8372q9L-4" target="nG1wJSaAUfL6e8372q9L-10">
          <mxGeometry relative="1" as="geometry">
            <Array as="points">
              <mxPoint x="397" y="331" />
            </Array>
          </mxGeometry>
        </mxCell>
        <mxCell id="nG1wJSaAUfL6e8372q9L-21" value="Configure-MachineGroups" style="whiteSpace=wrap;strokeWidth=2;" vertex="1" parent="1">
          <mxGeometry x="1948" y="411" width="199" height="34" as="geometry" />
        </mxCell>
        <mxCell id="nG1wJSaAUfL6e8372q9L-22" value="Process-Servers" style="whiteSpace=wrap;strokeWidth=2;" vertex="1" parent="1">
          <mxGeometry x="914" y="514" width="126" height="34" as="geometry" />
        </mxCell>
        <mxCell id="nG1wJSaAUfL6e8372q9L-23" value="Get-CredIDandName" style="whiteSpace=wrap;strokeWidth=2;" vertex="1" parent="1">
          <mxGeometry x="30" y="617" width="161" height="34" as="geometry" />
        </mxCell>
        <mxCell id="nG1wJSaAUfL6e8372q9L-24" value="Log-ResolutionError" style="whiteSpace=wrap;strokeWidth=2;" vertex="1" parent="1">
          <mxGeometry x="307" y="617" width="156" height="34" as="geometry" />
        </mxCell>
        <mxCell id="nG1wJSaAUfL6e8372q9L-25" value="Post-MachineGroup" style="whiteSpace=wrap;strokeWidth=2;" vertex="1" parent="1">
          <mxGeometry x="809" y="617" width="152" height="34" as="geometry" />
        </mxCell>
        <mxCell id="nG1wJSaAUfL6e8372q9L-26" value="Get-CredentialFromVault" style="whiteSpace=wrap;strokeWidth=2;" vertex="1" parent="1">
          <mxGeometry x="670" y="720" width="195" height="34" as="geometry" />
        </mxCell>
        <mxCell id="nG1wJSaAUfL6e8372q9L-27" value="Send-ErrorReportEmail" style="whiteSpace=wrap;strokeWidth=2;" vertex="1" parent="1">
          <mxGeometry x="1817" y="514" width="178" height="34" as="geometry" />
        </mxCell>
        <mxCell id="nG1wJSaAUfL6e8372q9L-28" value="MachineGroup-brzpinfpms01" style="whiteSpace=wrap;strokeWidth=2;" vertex="1" parent="1">
          <mxGeometry x="2045" y="514" width="220" height="34" as="geometry" />
        </mxCell>
        <mxCell id="nG1wJSaAUfL6e8372q9L-29" value="Manage-Directories" style="whiteSpace=wrap;strokeWidth=2;" vertex="1" parent="1">
          <mxGeometry x="2315" y="514" width="154" height="34" as="geometry" />
        </mxCell>
        <mxCell id="nG1wJSaAUfL6e8372q9L-30" value="Get-ChildItem" style="whiteSpace=wrap;strokeWidth=2;" vertex="1" parent="1">
          <mxGeometry x="2097" y="617" width="116" height="34" as="geometry" />
        </mxCell>
        <mxCell id="nG1wJSaAUfL6e8372q9L-31" value="Get-CredentialID" style="whiteSpace=wrap;strokeWidth=2;" vertex="1" parent="1">
          <mxGeometry x="1331" y="617" width="136" height="34" as="geometry" />
        </mxCell>
        <mxCell id="nG1wJSaAUfL6e8372q9L-32" value="Invoke-RestMethod" style="whiteSpace=wrap;strokeWidth=2;" vertex="1" parent="1">
          <mxGeometry x="1232" y="720" width="150" height="34" as="geometry" />
        </mxCell>
        <mxCell id="nG1wJSaAUfL6e8372q9L-33" value="Send-MailMessage" style="whiteSpace=wrap;strokeWidth=2;" vertex="1" parent="1">
          <mxGeometry x="1672" y="617" width="142" height="34" as="geometry" />
        </mxCell>
        <mxCell id="nG1wJSaAUfL6e8372q9L-34" value="Write-Host" style="whiteSpace=wrap;strokeWidth=2;" vertex="1" parent="1">
          <mxGeometry x="263" y="720" width="93" height="34" as="geometry" />
        </mxCell>
        <mxCell id="nG1wJSaAUfL6e8372q9L-35" value="New-Item" style="whiteSpace=wrap;strokeWidth=2;" vertex="1" parent="1">
          <mxGeometry x="2350" y="617" width="85" height="34" as="geometry" />
        </mxCell>
        <mxCell id="nG1wJSaAUfL6e8372q9L-36" value="Get-SecureCredential" style="whiteSpace=wrap;strokeWidth=2;" vertex="1" parent="1">
          <mxGeometry x="590" y="823" width="170" height="34" as="geometry" />
        </mxCell>
        <mxCell id="nG1wJSaAUfL6e8372q9L-37" value="ConvertTo-Json" style="whiteSpace=wrap;strokeWidth=2;" vertex="1" parent="1">
          <mxGeometry x="915" y="720" width="124" height="34" as="geometry" />
        </mxCell>
        <mxCell id="nG1wJSaAUfL6e8372q9L-38" value="Export-Csv" style="whiteSpace=wrap;strokeWidth=2;" vertex="1" parent="1">
          <mxGeometry x="1089" y="720" width="93" height="34" as="geometry" />
        </mxCell>
        <mxCell id="nG1wJSaAUfL6e8372q9L-39" value="ConvertTo-SecureString" style="whiteSpace=wrap;strokeWidth=2;" vertex="1" parent="1">
          <mxGeometry x="20" y="720" width="182" height="34" as="geometry" />
        </mxCell>
        <mxCell id="nG1wJSaAUfL6e8372q9L-40" value="New-Object" style="whiteSpace=wrap;strokeWidth=2;" vertex="1" parent="1">
          <mxGeometry x="810" y="823" width="101" height="34" as="geometry" />
        </mxCell>
        <mxCell id="nG1wJSaAUfL6e8372q9L-41" value="Get-HostEntry" style="whiteSpace=wrap;strokeWidth=2;" vertex="1" parent="1">
          <mxGeometry x="1432" y="720" width="118" height="34" as="geometry" />
        </mxCell>
        <mxCell id="nG1wJSaAUfL6e8372q9L-42" value="Split" style="whiteSpace=wrap;strokeWidth=2;" vertex="1" parent="1">
          <mxGeometry x="1796" y="720" width="48" height="34" as="geometry" />
        </mxCell>
        <mxCell id="nG1wJSaAUfL6e8372q9L-43" value="Get-Content" style="whiteSpace=wrap;strokeWidth=2;" vertex="1" parent="1">
          <mxGeometry x="1517" y="617" width="104" height="34" as="geometry" />
        </mxCell>
        <mxCell id="nG1wJSaAUfL6e8372q9L-44" value="Export-Csv" style="whiteSpace=wrap;strokeWidth=2;" vertex="1" parent="1">
          <mxGeometry x="2109" y="720" width="93" height="34" as="geometry" />
        </mxCell>
        <mxCell id="nG1wJSaAUfL6e8372q9L-45" value="Remove-Item" style="whiteSpace=wrap;strokeWidth=2;" vertex="1" parent="1">
          <mxGeometry x="1938" y="617" width="110" height="34" as="geometry" />
        </mxCell>
        <mxCell id="nG1wJSaAUfL6e8372q9L-46" value="Test-Path" style="whiteSpace=wrap;strokeWidth=2;" vertex="1" parent="1">
          <mxGeometry x="633" y="926" width="83" height="34" as="geometry" />
        </mxCell>
        <mxCell id="nG1wJSaAUfL6e8372q9L-47" value="Get-DnsEntry" style="whiteSpace=wrap;strokeWidth=2;" vertex="1" parent="1">
          <mxGeometry x="406" y="720" width="111" height="34" as="geometry" />
        </mxCell>
        <mxCell id="nG1wJSaAUfL6e8372q9L-48" value="Log-ResolutionError" style="whiteSpace=wrap;strokeWidth=2;" vertex="1" parent="1">
          <mxGeometry x="383" y="823" width="156" height="34" as="geometry" />
        </mxCell>
        <mxCell id="nG1wJSaAUfL6e8372q9L-49" value="Get-HostEntry" style="whiteSpace=wrap;strokeWidth=2;" vertex="1" parent="1">
          <mxGeometry x="403" y="926" width="118" height="34" as="geometry" />
        </mxCell>
        <mxCell id="nG1wJSaAUfL6e8372q9L-50" value="Invoke-RestMethod" style="whiteSpace=wrap;strokeWidth=2;" vertex="1" parent="1">
          <mxGeometry x="386" y="1029" width="150" height="34" as="geometry" />
        </mxCell>
        <mxCell id="nG1wJSaAUfL6e8372q9L-51" value="Invoke" style="curved=1;startArrow=none;endArrow=block;exitX=-0.0007459170854271357;exitY=0.6406336060647251;entryX=0.5010230654761905;entryY=0;rounded=0;fontSize=12;startSize=8;endSize=8;" edge="1" parent="1" source="nG1wJSaAUfL6e8372q9L-21" target="nG1wJSaAUfL6e8372q9L-22">
          <mxGeometry relative="1" as="geometry">
            <Array as="points">
              <mxPoint x="977" y="480" />
            </Array>
          </mxGeometry>
        </mxCell>
        <mxCell id="nG1wJSaAUfL6e8372q9L-52" value="Invoke" style="curved=1;startArrow=none;endArrow=block;exitX=0.0015190972222222222;exitY=0.6100923468671562;entryX=0.5043672360248447;entryY=0;rounded=0;fontSize=12;startSize=8;endSize=8;" edge="1" parent="1" source="nG1wJSaAUfL6e8372q9L-22" target="nG1wJSaAUfL6e8372q9L-23">
          <mxGeometry relative="1" as="geometry">
            <Array as="points">
              <mxPoint x="111" y="583" />
            </Array>
          </mxGeometry>
        </mxCell>
        <mxCell id="nG1wJSaAUfL6e8372q9L-53" value="Invoke" style="curved=1;startArrow=none;endArrow=block;exitX=0.0015190972222222222;exitY=0.661122221296643;entryX=0.5029171674679487;entryY=0;rounded=0;fontSize=12;startSize=8;endSize=8;" edge="1" parent="1" source="nG1wJSaAUfL6e8372q9L-22" target="nG1wJSaAUfL6e8372q9L-24">
          <mxGeometry relative="1" as="geometry">
            <Array as="points">
              <mxPoint x="385" y="583" />
            </Array>
          </mxGeometry>
        </mxCell>
        <mxCell id="nG1wJSaAUfL6e8372q9L-54" value="Invoke" style="curved=1;startArrow=none;endArrow=block;exitX=0.26033750626059476;exitY=1;entryX=0.501696134868421;entryY=0;rounded=0;fontSize=12;startSize=8;endSize=8;" edge="1" parent="1" source="nG1wJSaAUfL6e8372q9L-22" target="nG1wJSaAUfL6e8372q9L-25">
          <mxGeometry relative="1" as="geometry">
            <Array as="points">
              <mxPoint x="885" y="583" />
            </Array>
          </mxGeometry>
        </mxCell>
        <mxCell id="nG1wJSaAUfL6e8372q9L-55" value="Invoke" style="curved=1;startArrow=none;endArrow=block;exitX=0.24552986874041874;exitY=1;entryX=0.4989783653846154;entryY=0;rounded=0;fontSize=12;startSize=8;endSize=8;" edge="1" parent="1" source="nG1wJSaAUfL6e8372q9L-25" target="nG1wJSaAUfL6e8372q9L-26">
          <mxGeometry relative="1" as="geometry">
            <Array as="points">
              <mxPoint x="767" y="686" />
            </Array>
          </mxGeometry>
        </mxCell>
        <mxCell id="nG1wJSaAUfL6e8372q9L-56" value="Invoke" style="curved=1;startArrow=none;endArrow=block;exitX=0.2641569879128655;exitY=1;entryX=0.49957206811797755;entryY=0;rounded=0;fontSize=12;startSize=8;endSize=8;" edge="1" parent="1" source="nG1wJSaAUfL6e8372q9L-21" target="nG1wJSaAUfL6e8372q9L-27">
          <mxGeometry relative="1" as="geometry">
            <Array as="points">
              <mxPoint x="1906" y="480" />
            </Array>
          </mxGeometry>
        </mxCell>
        <mxCell id="nG1wJSaAUfL6e8372q9L-57" value="Invoke" style="curved=1;startArrow=none;endArrow=block;exitX=0.6771606439356973;exitY=1;entryX=0.49956498579545455;entryY=0;rounded=0;fontSize=12;startSize=8;endSize=8;" edge="1" parent="1" source="nG1wJSaAUfL6e8372q9L-21" target="nG1wJSaAUfL6e8372q9L-28">
          <mxGeometry relative="1" as="geometry">
            <Array as="points">
              <mxPoint x="2155" y="480" />
            </Array>
          </mxGeometry>
        </mxCell>
        <mxCell id="nG1wJSaAUfL6e8372q9L-58" value="Invoke" style="curved=1;startArrow=none;endArrow=block;exitX=0.9977622487437185;exitY=0.9364873632531138;entryX=0.4998351258116883;entryY=0;rounded=0;fontSize=12;startSize=8;endSize=8;" edge="1" parent="1" source="nG1wJSaAUfL6e8372q9L-21" target="nG1wJSaAUfL6e8372q9L-29">
          <mxGeometry relative="1" as="geometry">
            <Array as="points">
              <mxPoint x="2392" y="480" />
            </Array>
          </mxGeometry>
        </mxCell>
        <mxCell id="nG1wJSaAUfL6e8372q9L-59" value="Invoke" style="curved=1;startArrow=none;endArrow=block;exitX=-0.000875101461038961;exitY=0.9932698872031058;entryX=0.5016500538793104;entryY=0;rounded=0;fontSize=12;startSize=8;endSize=8;" edge="1" parent="1" source="nG1wJSaAUfL6e8372q9L-29" target="nG1wJSaAUfL6e8372q9L-30">
          <mxGeometry relative="1" as="geometry">
            <Array as="points">
              <mxPoint x="2155" y="583" />
            </Array>
          </mxGeometry>
        </mxCell>
        <mxCell id="nG1wJSaAUfL6e8372q9L-60" value="Invoke" style="curved=1;startArrow=none;endArrow=block;exitX=1.0005270337301588;exitY=0.7259737699096341;entryX=0.5;entryY=0;rounded=0;fontSize=12;startSize=8;endSize=8;" edge="1" parent="1" source="nG1wJSaAUfL6e8372q9L-22" target="nG1wJSaAUfL6e8372q9L-31">
          <mxGeometry relative="1" as="geometry">
            <Array as="points">
              <mxPoint x="1399" y="583" />
            </Array>
          </mxGeometry>
        </mxCell>
        <mxCell id="nG1wJSaAUfL6e8372q9L-61" value="Invoke" style="curved=1;startArrow=none;endArrow=block;exitX=0.27684124696601903;exitY=1;entryX=0.500390625;entryY=0;rounded=0;fontSize=12;startSize=8;endSize=8;" edge="1" parent="1" source="nG1wJSaAUfL6e8372q9L-31" target="nG1wJSaAUfL6e8372q9L-32">
          <mxGeometry relative="1" as="geometry">
            <Array as="points">
              <mxPoint x="1307" y="686" />
            </Array>
          </mxGeometry>
        </mxCell>
        <mxCell id="nG1wJSaAUfL6e8372q9L-62" value="Invoke" style="curved=1;startArrow=none;endArrow=block;exitX=0.19702774302525317;exitY=1;entryX=0.4984595070422535;entryY=0;rounded=0;fontSize=12;startSize=8;endSize=8;" edge="1" parent="1" source="nG1wJSaAUfL6e8372q9L-27" target="nG1wJSaAUfL6e8372q9L-33">
          <mxGeometry relative="1" as="geometry">
            <Array as="points">
              <mxPoint x="1743" y="583" />
            </Array>
          </mxGeometry>
        </mxCell>
        <mxCell id="nG1wJSaAUfL6e8372q9L-63" value="Invoke" style="curved=1;startArrow=none;endArrow=block;exitX=0.3422287553289148;exitY=1;entryX=0.5001680107526881;entryY=0;rounded=0;fontSize=12;startSize=8;endSize=8;" edge="1" parent="1" source="nG1wJSaAUfL6e8372q9L-24" target="nG1wJSaAUfL6e8372q9L-34">
          <mxGeometry relative="1" as="geometry">
            <Array as="points">
              <mxPoint x="310" y="686" />
            </Array>
          </mxGeometry>
        </mxCell>
        <mxCell id="nG1wJSaAUfL6e8372q9L-64" value="Invoke" style="curved=1;startArrow=none;endArrow=block;exitX=0.4998351258116883;exitY=1;entryX=0.4938189338235294;entryY=0;rounded=0;fontSize=12;startSize=8;endSize=8;" edge="1" parent="1" source="nG1wJSaAUfL6e8372q9L-29" target="nG1wJSaAUfL6e8372q9L-35">
          <mxGeometry relative="1" as="geometry">
            <Array as="points" />
          </mxGeometry>
        </mxCell>
        <mxCell id="nG1wJSaAUfL6e8372q9L-65" value="Invoke" style="curved=1;startArrow=none;endArrow=block;exitX=0.34199709826985336;exitY=1;entryX=0.49744944852941175;entryY=0;rounded=0;fontSize=12;startSize=8;endSize=8;" edge="1" parent="1" source="nG1wJSaAUfL6e8372q9L-26" target="nG1wJSaAUfL6e8372q9L-36">
          <mxGeometry relative="1" as="geometry">
            <Array as="points">
              <mxPoint x="675" y="789" />
            </Array>
          </mxGeometry>
        </mxCell>
        <mxCell id="nG1wJSaAUfL6e8372q9L-66" value="Invoke" style="curved=1;startArrow=none;endArrow=block;exitX=0.7012117957971385;exitY=1;entryX=0.5010395665322581;entryY=0;rounded=0;fontSize=12;startSize=8;endSize=8;" edge="1" parent="1" source="nG1wJSaAUfL6e8372q9L-25" target="nG1wJSaAUfL6e8372q9L-37">
          <mxGeometry relative="1" as="geometry">
            <Array as="points">
              <mxPoint x="977" y="686" />
            </Array>
          </mxGeometry>
        </mxCell>
        <mxCell id="nG1wJSaAUfL6e8372q9L-67" value="Invoke" style="curved=1;startArrow=none;endArrow=block;exitX=1.0025956003289473;exitY=0.9605792878773973;entryX=0.5015961021505376;entryY=0;rounded=0;fontSize=12;startSize=8;endSize=8;" edge="1" parent="1" source="nG1wJSaAUfL6e8372q9L-25" target="nG1wJSaAUfL6e8372q9L-38">
          <mxGeometry relative="1" as="geometry">
            <Array as="points">
              <mxPoint x="1136" y="686" />
            </Array>
          </mxGeometry>
        </mxCell>
        <mxCell id="nG1wJSaAUfL6e8372q9L-68" value="Invoke" style="curved=1;startArrow=none;endArrow=block;exitX=0.5043672360248447;exitY=1;entryX=0.5011160714285714;entryY=0;rounded=0;fontSize=12;startSize=8;endSize=8;" edge="1" parent="1" source="nG1wJSaAUfL6e8372q9L-23" target="nG1wJSaAUfL6e8372q9L-39">
          <mxGeometry relative="1" as="geometry">
            <Array as="points" />
          </mxGeometry>
        </mxCell>
        <mxCell id="nG1wJSaAUfL6e8372q9L-69" value="Invoke" style="curved=1;startArrow=none;endArrow=block;exitX=0.6559596324993774;exitY=1;entryX=0.49539758663366334;entryY=0;rounded=0;fontSize=12;startSize=8;endSize=8;" edge="1" parent="1" source="nG1wJSaAUfL6e8372q9L-26" target="nG1wJSaAUfL6e8372q9L-40">
          <mxGeometry relative="1" as="geometry">
            <Array as="points">
              <mxPoint x="860" y="789" />
            </Array>
          </mxGeometry>
        </mxCell>
        <mxCell id="nG1wJSaAUfL6e8372q9L-70" value="Invoke" style="curved=1;startArrow=none;endArrow=block;exitX=0.7231587530339809;exitY=1;entryX=0.4995034427966102;entryY=0;rounded=0;fontSize=12;startSize=8;endSize=8;" edge="1" parent="1" source="nG1wJSaAUfL6e8372q9L-31" target="nG1wJSaAUfL6e8372q9L-41">
          <mxGeometry relative="1" as="geometry">
            <Array as="points">
              <mxPoint x="1491" y="686" />
            </Array>
          </mxGeometry>
        </mxCell>
        <mxCell id="nG1wJSaAUfL6e8372q9L-71" value="Invoke" style="curved=1;startArrow=none;endArrow=block;exitX=1.0005457261029411;exitY=0.7448340157841182;entryX=0.503173828125;entryY=0;rounded=0;fontSize=12;startSize=8;endSize=8;" edge="1" parent="1" source="nG1wJSaAUfL6e8372q9L-31" target="nG1wJSaAUfL6e8372q9L-42">
          <mxGeometry relative="1" as="geometry">
            <Array as="points">
              <mxPoint x="1820" y="686" />
            </Array>
          </mxGeometry>
        </mxCell>
        <mxCell id="nG1wJSaAUfL6e8372q9L-72" value="Invoke" style="curved=1;startArrow=none;endArrow=block;exitX=1.0005270337301588;exitY=0.6609835234828104;entryX=0.5030048076923077;entryY=0;rounded=0;fontSize=12;startSize=8;endSize=8;" edge="1" parent="1" source="nG1wJSaAUfL6e8372q9L-22" target="nG1wJSaAUfL6e8372q9L-43">
          <mxGeometry relative="1" as="geometry">
            <Array as="points">
              <mxPoint x="1569" y="583" />
            </Array>
          </mxGeometry>
        </mxCell>
        <mxCell id="nG1wJSaAUfL6e8372q9L-73" value="Invoke" style="curved=1;startArrow=none;endArrow=block;exitX=0.5016500538793104;exitY=1;entryX=0.4966817876344086;entryY=0;rounded=0;fontSize=12;startSize=8;endSize=8;" edge="1" parent="1" source="nG1wJSaAUfL6e8372q9L-30" target="nG1wJSaAUfL6e8372q9L-44">
          <mxGeometry relative="1" as="geometry">
            <Array as="points" />
          </mxGeometry>
        </mxCell>
        <mxCell id="nG1wJSaAUfL6e8372q9L-74" value="Invoke" style="curved=1;startArrow=none;endArrow=block;exitX=0.6599445744586556;exitY=1;entryX=0.49456676136363636;entryY=0;rounded=0;fontSize=12;startSize=8;endSize=8;" edge="1" parent="1" source="nG1wJSaAUfL6e8372q9L-27" target="nG1wJSaAUfL6e8372q9L-45">
          <mxGeometry relative="1" as="geometry">
            <Array as="points">
              <mxPoint x="1992" y="583" />
            </Array>
          </mxGeometry>
        </mxCell>
        <mxCell id="nG1wJSaAUfL6e8372q9L-75" value="Invoke" style="curved=1;startArrow=none;endArrow=block;exitX=0.49744944852941175;exitY=1;entryX=0.5008000753012049;entryY=0;rounded=0;fontSize=12;startSize=8;endSize=8;" edge="1" parent="1" source="nG1wJSaAUfL6e8372q9L-36" target="nG1wJSaAUfL6e8372q9L-46">
          <mxGeometry relative="1" as="geometry">
            <Array as="points" />
          </mxGeometry>
        </mxCell>
        <mxCell id="nG1wJSaAUfL6e8372q9L-76" value="Invoke" style="curved=1;startArrow=none;endArrow=block;exitX=0.6636055796069826;exitY=1;entryX=0.4990498310810811;entryY=0;rounded=0;fontSize=12;startSize=8;endSize=8;" edge="1" parent="1" source="nG1wJSaAUfL6e8372q9L-24" target="nG1wJSaAUfL6e8372q9L-47">
          <mxGeometry relative="1" as="geometry">
            <Array as="points">
              <mxPoint x="461" y="686" />
            </Array>
          </mxGeometry>
        </mxCell>
        <mxCell id="nG1wJSaAUfL6e8372q9L-77" value="Invoke" style="curved=1;startArrow=none;endArrow=block;exitX=0.4990498310810811;exitY=1;entryX=0.5025290464743589;entryY=0;rounded=0;fontSize=12;startSize=8;endSize=8;" edge="1" parent="1" source="nG1wJSaAUfL6e8372q9L-47" target="nG1wJSaAUfL6e8372q9L-48">
          <mxGeometry relative="1" as="geometry">
            <Array as="points" />
          </mxGeometry>
        </mxCell>
        <mxCell id="nG1wJSaAUfL6e8372q9L-78" value="Invoke" style="curved=1;startArrow=none;endArrow=block;exitX=0.5025290464743589;exitY=1;entryX=0.4948689088983051;entryY=0;rounded=0;fontSize=12;startSize=8;endSize=8;" edge="1" parent="1" source="nG1wJSaAUfL6e8372q9L-48" target="nG1wJSaAUfL6e8372q9L-49">
          <mxGeometry relative="1" as="geometry">
            <Array as="points" />
          </mxGeometry>
        </mxCell>
        <mxCell id="nG1wJSaAUfL6e8372q9L-79" value="Invoke" style="curved=1;startArrow=none;endArrow=block;exitX=0.4948689088983051;exitY=1;entryX=0.5026302083333334;entryY=0;rounded=0;fontSize=12;startSize=8;endSize=8;" edge="1" parent="1" source="nG1wJSaAUfL6e8372q9L-49" target="nG1wJSaAUfL6e8372q9L-50">
          <mxGeometry relative="1" as="geometry">
            <Array as="points" />
          </mxGeometry>
        </mxCell>
      </root>
    </mxGraphModel>
  </diagram>
</mxfile>
